<svg width="754" height="599" viewBox="0 0 754 599" fill="none" xmlns="http://www.w3.org/2000/svg">
<path d="M212.763 125.544L213.649 123.385L213.063 121.126L206.287 122.885C213.063 121.126 213.062 121.121 213.06 121.117L213.058 121.105L213.05 121.075L213.025 120.985C213.006 120.911 212.978 120.811 212.943 120.686C212.874 120.436 212.773 120.085 212.639 119.64C212.372 118.751 211.973 117.487 211.424 115.913C210.327 112.767 208.63 108.364 206.192 103.218C201.33 92.9531 193.447 79.5699 181.377 67.3123C169.27 55.0167 152.936 43.847 131.317 38.1742C109.698 32.5016 83.2412 32.4428 51.068 41.6817L26.784 48.655L51.1792 55.1688L51.1799 55.169C51.1806 55.1692 51.1815 55.1694 51.1826 55.1698C51.1838 55.1701 51.1852 55.1705 51.1868 55.1709C51.1994 55.1744 51.2268 55.182 51.2684 55.1938C51.3518 55.2175 51.492 55.2582 51.6846 55.3166C52.07 55.4335 52.6636 55.621 53.4293 55.8858C54.9634 56.4164 57.1732 57.2516 59.7746 58.4417C65.0145 60.8388 71.6461 64.5861 77.5528 70.0216C83.428 75.4281 88.4705 82.3912 90.8798 91.3116C93.2349 100.031 93.2309 111.197 88.2369 125.45C88.0276 125.771 87.7682 126.178 87.4686 126.664C86.6993 127.914 85.6599 129.698 84.5235 131.922C82.2629 136.344 79.5536 142.627 77.8654 149.969C74.46 164.781 75.1826 184.461 92.5609 201.02L94.3168 202.694L96.7316 202.922L97.3898 195.953C96.7316 202.922 96.7356 202.922 96.7399 202.922L96.7499 202.923L96.7752 202.926L96.8468 202.932C96.9037 202.937 96.979 202.943 97.0722 202.95C97.2585 202.965 97.5166 202.983 97.8427 203.002C98.4948 203.04 99.4199 203.082 100.588 203.103C102.924 203.146 106.241 203.109 110.302 202.8C118.41 202.182 129.567 200.474 141.83 196.103C166.534 187.296 195.426 167.753 212.763 125.544Z" fill="#EC8479" stroke="#D85C4F" stroke-width="14"/>
<path d="M374.471 583.288L373.192 591.38H381.385H512.524C526.123 591.4 534.344 582.852 538.883 574.911C543.365 567.068 544.964 558.762 545.387 556.222L545.483 555.65V555.071V554.839L548.818 534.048L550.119 525.939H541.906H389.515H383.534L382.601 531.846L374.471 583.288Z" fill="#FB786A" stroke="#D85C4F" stroke-width="14"/>
<path d="M170.13 525.939H164.15L163.216 531.846L155.086 583.288L153.807 591.38H162H293.139C305.265 591.398 313.188 584.58 317.957 577.428C322.61 570.452 324.698 562.619 325.556 558.57L318.819 557.142L325.556 558.57C325.765 557.584 325.909 556.783 326.003 556.222L326.098 555.65V555.071V554.829L329.371 534.027L330.644 525.939H322.456H170.13Z" fill="#FB786A" stroke="#D85C4F" stroke-width="14"/>
<path d="M206.287 122.885C206.287 122.885 177.655 12.6137 53 48.4098C53 48.4098 117.267 65.5699 94.5404 128.616C94.5404 128.616 67.316 167.295 97.3898 195.953C97.3898 195.953 173.33 203.126 206.287 122.885Z" fill="#EC8479"/>
<path d="M94.5404 128.616C94.5404 128.616 67.316 167.295 97.3898 195.953C102.098 200.439 106.649 203.77 111 203.439C122.854 202.535 134.011 192.008 145.007 187.338C157.984 32.1075 53 48.4096 53 48.4096C53 48.4096 117.267 65.5011 94.5404 128.616Z" fill="#D85C4F"/>
<path d="M630.143 195.421L628.6 193.281L630.143 195.421ZM630.143 195.421L630.143 195.423M630.143 195.421L630.143 195.423M630.143 195.423L632.582 198.807L630.143 195.423ZM85.9697 140.952V208.96H60.0111C37.9119 208.96 20 226.879 20 248.98V342.032C20 364.132 37.9119 382.052 60.0111 382.052H85.9697V472.994C85.9697 509.996 115.951 540 152.942 540H544.762C581.754 540 611.734 509.996 611.734 472.994V283.301C615.638 292.783 619.639 299.614 620.967 301.789C629.548 318.378 643.501 324.335 656.137 324.335H656.148L656.159 324.335C662.049 324.316 667.861 322.994 673.18 320.464L673.194 320.457L673.209 320.45L674.136 320.003L674.817 319.675L675.413 319.209L676.11 318.663C679.953 315.847 683.17 312.264 685.559 308.14C687.969 303.978 689.482 299.358 689.999 294.576L690.002 294.557L690.004 294.537C691.611 278.875 681.987 265.915 679.301 262.569C668.002 245.935 655.115 233.668 640.601 226.388C640.821 225.91 641.012 225.578 641.223 225.281C641.569 224.795 642.236 224.043 644.459 222.85C645.23 222.452 645.885 221.967 646.073 221.827L646.111 221.798L646.112 221.798C646.576 221.46 646.656 221.417 646.83 221.351C647.022 221.279 647.649 221.076 649.026 221.082C651.957 221.094 657.684 222.045 668.312 226.294L668.317 226.296C686.018 233.359 704.348 247.934 713.899 275.464C714.622 277.574 715.753 279.521 717.229 281.195C718.706 282.871 720.499 284.24 722.505 285.223L725.585 278.937L722.505 285.223C724.511 286.206 726.692 286.784 728.921 286.924C731.151 287.065 733.387 286.764 735.5 286.04C737.614 285.317 739.564 284.184 741.24 282.706C742.915 281.228 744.283 279.435 745.266 277.429C746.248 275.422 746.826 273.242 746.966 271.013C747.107 268.783 746.806 266.548 746.083 264.434L746.079 264.424L746.076 264.413C733.061 226.776 707.556 205.314 680.8 194.752C664.264 188.196 652.368 186.792 643.83 187.65C635.064 188.532 630.403 191.749 628.49 193.127L628.494 193.133L628.49 193.128C628.456 193.152 628.429 193.171 628.406 193.188L628.384 193.202L628.305 193.251C621.727 196.799 617.014 200.944 613.436 206.217C612.831 207.108 612.266 208.022 611.734 208.957V140.952C611.734 103.95 581.754 73.946 544.762 73.946L252.189 73.946C252.121 73.8212 252.051 73.694 251.979 73.5643C250.479 70.8477 248.217 67.0667 245.109 62.6727C238.902 53.8968 229.259 42.5915 215.49 32.4544C187.671 11.9754 143.782 -3.13944 79.3989 15.3592L55.1298 22.3323L79.5105 28.8459L79.5148 28.8471C79.5239 28.8496 79.5454 28.8555 79.5788 28.865C79.6457 28.8839 79.7604 28.9169 79.9193 28.9646C80.2373 29.0601 80.7316 29.214 81.3747 29.4314C82.6627 29.8669 84.5366 30.5534 86.7796 31.5294C91.2918 33.4928 97.1581 36.5674 102.739 41.0209C113.136 49.3177 122.449 62.2089 120.438 82.3543C99.8906 93.7867 85.9697 115.738 85.9697 140.952ZM650.063 284.843L650.02 284.767L649.976 284.692C647.325 280.222 645.021 275.568 643.078 270.77C646.239 274.221 649.078 277.973 651.552 281.984L651.719 282.254L651.909 282.508L652.63 283.469L652.78 283.67L652.944 283.858C652.943 283.858 652.944 283.858 652.946 283.86C652.959 283.877 653.039 283.973 653.179 284.162C653.332 284.367 653.526 284.64 653.745 284.969C654.186 285.633 654.685 286.46 655.133 287.351C655.587 288.256 655.936 289.12 656.145 289.875C656.237 290.208 656.289 290.475 656.318 290.679C655.751 290.734 655.243 290.689 654.8 290.552C654.147 290.35 652.506 289.61 650.697 285.991L650.624 285.844L650.544 285.701L650.063 284.843Z" fill="#FF927C" stroke="#D85C4F" stroke-width="14"/>
<path d="M389.515 532.939L381.385 584.38H492.857C512.941 584.415 517.919 559.601 518.64 555.071V554.281L522.057 532.939H389.515Z" fill="#FB786A"/>
<path d="M389.515 532.939L384.393 565.348C429.853 563.153 474.637 553.242 516.82 536.012L517.656 532.939H389.515Z" fill="#D85C4F"/>
<path d="M409.324 532.939L401.193 584.38H512.528C532.749 584.415 537.727 559.601 538.483 555.071V554.281L541.906 532.939H409.324Z" fill="#FF927C"/>
<path d="M409.323 532.939L404.992 560.343C448.852 561.027 497.456 561.037 539.421 548.43L541.906 532.939H409.323Z" fill="#FB786A"/>
<path d="M170.13 532.939L162 584.38H273.335C293.556 584.415 298.534 559.601 299.289 555.071V554.281L302.648 532.939H170.13Z" fill="#FB786A"/>
<path d="M170.13 532.939L166.473 556.078C209.913 562.224 256.334 561.577 299.456 553.218L300.582 546.064L297.136 532.939H170.13Z" fill="#D85C4F"/>
<path d="M189.813 532.939L181.671 584.38H293.144C313.399 584.415 318.343 559.601 319.098 555.071V554.281L322.456 532.939H189.813Z" fill="#FF927C"/>
<path d="M189.813 532.939L186.224 555.62C230.699 559.69 275.048 560.247 318.708 557.118C318.893 556.247 319.019 555.547 319.098 555.071V554.281L322.457 532.939H189.813Z" fill="#FB786A"/>
<path d="M27 310.251V341.963C27 350.723 30.4784 359.124 36.6711 365.321C42.8637 371.518 51.264 375.005 60.0263 375.014C93.5 375.014 53.1418 375.014 93 375.014C93 375.014 93 350.729 93 341.963V310.251H27Z" fill="#FB786A"/>
<path fill-rule="evenodd" clip-rule="evenodd" d="M174 154.939L191.971 110.838L196.273 80.939H269.228C252.137 132.629 174 154.939 174 154.939Z" fill="#FB786A"/>
<path d="M248 80.939C248 80.939 206.012 -13.7099 81.3569 22.0862C81.3569 22.0862 145.624 39.2463 122.897 102.327C122.897 102.327 95.6729 141.006 125.781 169.629C125.781 169.629 215.042 161.145 248 80.939Z" fill="#FF927C"/>
<path fill-rule="evenodd" clip-rule="evenodd" d="M173.769 155.71C183.913 6.26621 81.4098 22.0781 81.3569 22.0862C81.3569 22.0862 81.3569 22.0862 81.3569 22.0862C81.3773 22.0916 145.621 39.1877 123.035 102.327C123.035 102.327 112.586 117.042 111.667 135.036C111.125 146.215 114.243 158.66 125.781 169.629C125.781 169.629 147.668 167.549 173.769 155.71Z" fill="#FB786A"/>
<path opacity="0.43" d="M171.134 222.687C171.134 244.102 161.075 261.434 148.647 261.434C136.219 261.434 126.16 244.274 126.16 222.687C126.16 201.099 136.253 183.939 148.647 183.939C161.04 183.939 171.134 201.271 171.134 222.687Z" fill="#802020"/>
<path d="M197.465 300.25C197.465 304.802 195.657 309.166 192.438 312.385C189.219 315.603 184.853 317.411 180.3 317.411H117.165C112.613 317.411 108.247 315.603 105.028 312.385C101.808 309.166 100 304.802 100 300.25V300.25C100 295.699 101.808 291.335 105.028 288.116C108.247 284.898 112.613 283.09 117.165 283.09H180.163C184.715 283.09 189.081 284.898 192.3 288.116C195.52 291.335 197.328 295.699 197.328 300.25H197.465Z" fill="#FB786A"/>
<path d="M535 161.939C547.702 161.939 558 151.642 558 138.939L273 138.939C273 151.641 283.298 161.939 296 161.939L535 161.939Z" fill="#511515"/>
<path d="M293.648 116.058C282.051 117.236 273 127.03 273 138.939V138.944C273.001 142.001 273.598 144.918 274.681 147.586C279.197 140.369 283.038 139.337 291.001 138.939L539.999 138.939C547.962 139.337 551.803 140.369 556.319 147.586C557.402 144.918 557.999 142.001 558 138.944L557.999 138.939C557.999 126.364 547.906 116.146 535.38 115.942C535.254 115.94 535.127 115.939 535 115.939L296 115.939C295.206 115.939 294.422 115.979 293.648 116.058Z" fill="#802020"/>
<path fill-rule="evenodd" clip-rule="evenodd" d="M301 515.033H533.188C562.959 515.033 587.094 490.898 587.094 461.126V238.939C553.188 555.033 627.094 481.126 301 515.033Z" fill="#FB786A"/>
</svg>
