<svg width="954" height="734" viewBox="0 0 954 734" fill="none" xmlns="http://www.w3.org/2000/svg">
<path fill-rule="evenodd" clip-rule="evenodd" d="M340.62 90.859C330.376 93.3807 320.252 96.3426 310.277 99.7349C304.633 82.4702 270.296 -4.13629 157.843 28.1558C157.843 28.1558 176.967 33.2622 190.661 48.1434C173.435 46.1465 153.198 47.6704 129.486 54.4795C129.486 54.4795 175.884 66.8682 175.892 109.267C175.89 116.767 174.439 125.208 171.026 134.686C171.026 134.686 150.183 164.3 165.119 190.901C165.559 191.686 166.031 192.468 166.535 193.247C131.959 232.078 108.586 278.656 100.564 329.419H54.0263C35.7864 329.419 21 344.201 21 362.435V455.478C21 473.712 35.7864 488.494 54.0263 488.494H127.668C146.604 524.162 173.734 555.941 206.996 582.056L186.303 712.983H317.447C337.702 713.017 342.646 688.204 343.401 683.673V682.884L343.678 681.127L343.71 681.134L348.854 648.348C376.024 654.424 404.535 657.659 433.932 657.659C447.753 657.659 461.378 656.944 474.762 655.555L469.773 687.105L469.778 687.105L465.688 712.983H596.832C617.053 713.017 622.031 688.204 622.786 683.673V682.884L629.301 642.274L629.412 642.214L636.239 599.677C717.828 546.939 770.581 463.085 770.581 368.647C770.581 332.087 762.681 297.111 748.268 264.912C757.897 259.33 769.18 255.096 780.949 255.493C781.841 280.856 795.848 304.64 798.114 308.312C805.392 322.555 816.893 327.291 827.192 327.291C832.051 327.276 836.846 326.186 841.234 324.1L842.161 323.653L842.95 323.036C846.051 320.783 848.646 317.905 850.567 314.589C852.489 311.273 853.695 307.592 854.108 303.782C855.447 290.74 847.001 279.483 844.735 276.703C832.308 258.342 818.266 246.09 802.749 240.049C805.453 233.001 810.609 227.164 817.271 223.61C819.262 222.649 844.152 210.843 868.973 220.761C888.336 228.483 903.304 247.462 913.603 277.149C914.029 278.393 914.696 279.541 915.566 280.527C916.436 281.514 917.491 282.319 918.672 282.898C919.854 283.476 921.137 283.816 922.45 283.899C923.762 283.981 925.078 283.805 926.323 283.379C927.567 282.953 928.715 282.286 929.702 281.416C930.688 280.547 931.494 279.492 932.073 278.311C932.651 277.13 932.991 275.847 933.074 274.535C933.157 273.223 932.98 271.907 932.554 270.663C920.263 235.141 901.347 212.113 876.285 202.228C841.989 188.637 809.512 205.386 808.139 206.106L807.864 206.278C796.176 212.517 787.419 223.109 783.489 235.759H782.871C766.838 234.947 751.956 240.221 739.545 247.216C686.149 148.249 569.495 79.6019 434.104 79.6019C401.663 79.6019 370.293 83.5431 340.609 90.8983L340.62 90.859ZM801.272 261.259C803.591 274.305 808.242 286.826 815.005 298.222L815.485 299.08C820.395 308.896 827.33 308.347 831.587 306.768C832.355 306.177 832.997 305.439 833.475 304.596C833.952 303.753 834.256 302.822 834.367 301.86C834.882 296.884 830.419 290.534 829.286 289.23L828.565 288.269C821.748 277.223 812.391 267.963 801.272 261.259Z" fill="black" stroke="#D85C4F" stroke-width="41" stroke-miterlimit="10"/>
<path d="M282.773 128.946C282.773 128.946 254.141 18.6748 129.486 54.4709C129.486 54.4709 193.753 71.631 171.026 134.677C171.026 134.677 143.802 173.356 173.876 202.014C173.876 202.014 249.816 209.187 282.773 128.946Z" fill="#FB786A"/>
<path d="M171.026 134.677C171.026 134.677 143.802 173.356 173.876 202.014C190.192 202.727 206.461 199.783 221.493 193.399C234.47 38.1687 129.486 54.4709 129.486 54.4709C129.486 54.4709 193.753 71.5624 171.026 134.677Z" fill="#D85C4F"/>
<path d="M323.592 683.665V682.875L334.853 611.318L210.712 558.533L186.303 712.974H297.638C317.859 713.009 322.837 688.195 323.592 683.665Z" fill="#FB786A"/>
<path d="M199.28 630.88C237.658 654.644 279.835 671.64 323.97 681.125L334.853 611.318L210.712 558.533L199.28 630.88Z" fill="#D85C4F"/>
<path d="M602.943 683.665V682.875L622.855 558.533H490.097L465.688 712.974H577.16C597.244 713.009 602.222 688.195 602.943 683.665Z" fill="#FB786A"/>
<path d="M469.773 687.097C518.749 680.859 566.152 665.64 609.603 642.206L622.992 558.567H490.097L469.773 687.097Z" fill="#D85C4F"/>
<path d="M140.574 329.411H54.0263C35.7864 329.411 21 344.193 21 362.427V455.469C21 473.703 35.7864 488.485 54.0263 488.485H140.574C158.814 488.485 173.601 473.703 173.601 455.469V362.427C173.601 344.193 158.814 329.411 140.574 329.411Z" fill="#FF927C"/>
<path d="M21 423.723V455.435C21 464.194 24.4784 472.596 30.6711 478.793C36.8637 484.99 45.264 488.476 54.0263 488.485H140.54C149.308 488.485 157.717 485.003 163.918 478.805C170.118 472.607 173.601 464.2 173.601 455.435V423.723H21Z" fill="#FB786A"/>
<path d="M622.786 683.665V682.875L642.733 558.533H509.906L485.497 712.974H596.832C617.053 713.009 622.031 688.195 622.786 683.665Z" fill="#FF927C"/>
<path d="M343.401 683.665V682.875L354.662 611.318L230.418 558.533L205.975 712.974H317.447C337.702 713.009 342.646 688.195 343.401 683.665Z" fill="#FF927C"/>
<path d="M219.124 630.88C257.464 654.645 299.607 671.641 343.71 681.125L354.662 611.318L230.418 558.533L219.124 630.88Z" fill="#FB786A"/>
<path d="M489.616 687.097C538.58 680.859 585.973 665.64 629.412 642.206L642.835 558.567H509.906L489.616 687.097Z" fill="#FB786A"/>
<path d="M770.581 368.639C770.581 528.262 619.868 657.65 433.932 657.65C247.996 657.65 97.4893 528.262 97.4893 368.639C97.4893 209.015 248.202 79.5933 434.104 79.5933C620.005 79.5933 770.581 209.015 770.581 368.639Z" fill="#F89683"/>
<path d="M268.457 116.9L262.38 160.932C262.38 160.932 325.275 144.321 340.62 90.8504C315.719 96.9798 291.531 105.711 268.457 116.9V116.9Z" fill="#FB786A"/>
<path d="M720.674 269.009C727.474 291.068 730.945 314.017 730.973 337.1C730.973 486.634 587.127 608.23 410.288 608.23C345.548 608.666 281.887 591.653 226 558.981C280.929 601.744 354.295 627.862 434.663 627.862C604.807 627.862 743.229 510.795 743.229 367.027C743.198 333.072 735.487 299.564 720.674 269.009Z" fill="#FB786A"/>
<path d="M827.192 327.283C816.893 327.283 805.392 322.547 798.114 308.304C795.848 304.631 781.841 280.847 780.949 255.485C748.437 254.387 719.634 288.638 719.153 288.981C718.406 290.202 717.404 291.247 716.216 292.044C715.027 292.842 713.68 293.372 712.267 293.6C710.854 293.828 709.408 293.747 708.029 293.364C706.65 292.981 705.371 292.304 704.278 291.379C703.186 290.455 702.306 289.305 701.7 288.009C701.094 286.713 700.775 285.301 700.766 283.87C700.757 282.439 701.058 281.023 701.648 279.719C702.238 278.416 703.104 277.255 704.185 276.317C705.627 274.601 740.163 233.588 782.871 235.751H783.489C787.419 223.101 796.176 212.509 807.864 206.269L808.139 206.098C809.512 205.377 841.989 188.629 876.285 202.22C901.347 212.104 920.263 235.133 932.554 270.654C932.98 271.898 933.157 273.214 933.074 274.526C932.991 275.838 932.651 277.122 932.073 278.302C931.494 279.483 930.688 280.538 929.702 281.408C928.715 282.277 927.567 282.944 926.323 283.37C925.078 283.796 923.762 283.973 922.45 283.89C921.137 283.808 919.854 283.467 918.672 282.889C917.491 282.311 916.436 281.505 915.566 280.519C914.696 279.533 914.029 278.385 913.603 277.141C903.304 247.454 888.336 228.475 868.973 220.753C844.152 210.834 819.262 222.64 817.271 223.601C810.609 227.156 805.453 232.993 802.749 240.041C818.266 246.081 832.308 258.333 844.735 276.695C847.001 279.475 855.447 290.732 854.108 303.773C853.695 307.583 852.489 311.265 850.567 314.581C848.646 317.897 846.051 320.774 842.95 323.027L842.161 323.645L841.234 324.091C836.846 326.178 832.051 327.268 827.192 327.283ZM801.272 261.251C803.591 274.296 808.242 286.818 815.005 298.214L815.485 299.072C820.395 308.887 827.33 308.338 831.587 306.759C832.355 306.169 832.997 305.43 833.475 304.587C833.952 303.744 834.256 302.814 834.367 301.851C834.882 296.875 830.419 290.526 829.286 289.222L828.565 288.261C821.748 277.214 812.391 267.954 801.272 261.251V261.251Z" fill="#FF927C"/>
<path d="M228.599 269.11C228.599 290.526 218.54 307.858 206.112 307.858C193.684 307.858 183.625 290.697 183.625 269.11C183.625 247.523 193.719 230.362 206.112 230.362C218.506 230.362 228.599 247.694 228.599 269.11Z" fill="#802020"/>
<path d="M311.164 102.657C311.164 102.657 282.498 -7.64885 157.843 28.1472C157.843 28.1472 222.11 45.3074 199.383 108.388C199.383 108.388 172.159 147.067 202.267 175.69C202.267 175.69 278.207 182.863 311.164 102.657Z" fill="#FF927C"/>
<path d="M199.52 108.388C199.52 108.388 172.056 147.067 202.267 175.69C218.568 176.398 234.823 173.467 249.85 167.11C262.827 11.9137 157.843 28.1472 157.843 28.1472C157.843 28.1472 222.11 45.2387 199.52 108.388Z" fill="#FB786A"/>
<path d="M254.931 346.674C254.931 351.225 253.122 355.59 249.903 358.808C246.684 362.026 242.318 363.834 237.765 363.834H174.631C170.078 363.834 165.712 362.026 162.493 358.808C159.274 355.59 157.465 351.225 157.465 346.674V346.674C157.465 342.123 159.274 337.758 162.493 334.54C165.712 331.322 170.078 329.514 174.631 329.514H237.628C242.181 329.514 246.547 331.322 249.766 334.54C252.985 337.758 254.793 342.123 254.793 346.674H254.931Z" fill="#FB786A"/>
<path d="M586.479 196.846C584.592 196.83 582.715 196.586 580.886 196.119C554.714 184.03 487.175 167.942 439.445 168.004C399.664 168.012 339.996 182.229 321.103 190.584C315.518 191.793 309.682 190.734 304.878 187.641C300.075 184.547 296.697 179.673 295.488 174.09C294.279 168.508 295.338 162.673 298.432 157.871C301.526 153.069 306.402 149.692 311.986 148.484C333.876 139.494 396.602 124.977 439.445 125.009C490.87 124.942 562.091 141.481 591.848 154.466C596.953 155.769 601.403 158.898 604.355 163.26C607.307 167.623 608.557 172.916 607.868 178.137C607.179 183.359 604.598 188.147 600.616 191.595C596.633 195.043 591.524 196.911 586.255 196.846H586.479Z" fill="#802020"/>
<path d="M321.215 190.584C340.108 182.229 399.776 168.012 439.557 168.004C487.287 167.942 554.826 184.03 580.998 196.119C582.827 196.586 584.704 196.83 586.591 196.846C590.438 196.835 594.212 195.792 597.517 193.825C600.823 191.858 603.539 189.039 605.383 185.664C604.002 183.055 602.097 180.76 599.787 178.923C597.478 177.085 594.813 175.744 591.96 174.985C562.203 162 490.982 145.461 439.557 145.528C396.7 145.625 333.974 160.273 312.098 169.394C309.179 170.078 306.434 171.36 304.037 173.16C301.64 174.959 299.643 177.237 298.172 179.849C300.37 183.858 303.79 187.06 307.934 188.991C312.078 190.922 316.731 191.48 321.215 190.584Z" fill="#511515"/>
</svg>
