<svg width="627" height="658" viewBox="0 0 627 658" fill="none" xmlns="http://www.w3.org/2000/svg">
<path d="M33.97 523.207C33.97 529.267 27.57 534.207 19.66 534.207H14.3C6.4 534.207 0 529.297 0 523.207V334.587C0 328.587 6.4 323.587 14.3 323.587H19.66C27.57 323.587 33.97 328.497 33.97 334.587V523.207Z" fill="#BCBCBC"/>
<path d="M626.46 523.207C626.46 529.267 620.06 534.207 612.15 534.207H606.79C598.89 534.207 592.49 529.297 592.49 523.207V334.587C592.49 328.587 598.89 323.587 606.79 323.587H612.15C620.06 323.587 626.46 328.497 626.46 334.587V523.207Z" fill="#BCBCBC"/>
<path d="M116.323 24.5192C117.921 14.7243 111.277 5.48791 101.482 3.88919C91.6872 2.29047 82.4509 8.93483 80.8521 18.7298C79.2534 28.5247 85.8978 37.7611 95.6927 39.3598C105.488 40.9585 114.724 34.3142 116.323 24.5192Z" fill="#BCBCBC"/>
<path d="M108.95 164.176H88.22L93.25 21.6265H103L108.95 164.176Z" fill="#BCBCBC"/>
<path d="M135.59 243.676C135.59 249.736 130.07 254.676 123.26 254.676H73.91C67.1 254.676 61.5699 249.766 61.5699 243.676V147.167C61.5699 141.107 67.1 136.167 73.91 136.167H123.26C130.07 136.167 135.59 141.077 135.59 147.167V243.676Z" fill="#BCBCBC"/>
<path d="M545.391 25.8045C547.689 16.1497 541.726 6.45988 532.071 4.16157C522.416 1.86326 512.726 7.82682 510.428 17.4816C508.13 27.1364 514.093 36.8263 523.748 39.1246C533.403 41.4229 543.093 35.4593 545.391 25.8045Z" fill="#BCBCBC"/>
<path d="M538.24 164.176H517.51L522.54 21.6265H532.29L538.24 164.176Z" fill="#BCBCBC"/>
<path d="M564.88 243.676C564.88 249.736 559.36 254.676 552.55 254.676H503.2C496.39 254.676 490.86 249.766 490.86 243.676V147.167C490.86 141.107 496.39 136.167 503.2 136.167H552.53C559.34 136.167 564.86 141.077 564.86 147.167L564.88 243.676Z" fill="#BCBCBC"/>
<path d="M607.31 321.727C602.15 218.727 472.47 136.197 313.23 136.197C153.99 136.197 24.31 218.697 19.15 321.727C19.0343 322.756 18.9742 323.791 18.97 324.827V620.177C18.97 640.567 40.34 657.097 66.71 657.097H559.71C586.08 657.097 607.45 640.567 607.45 620.177V324.827C607.459 323.791 607.412 322.757 607.31 321.727Z" fill="#D1D1D1"/>
<path d="M559.75 632.346H66.75C40.38 632.346 19.01 621.766 19.01 608.706V633.487C19.01 646.547 40.38 657.127 66.75 657.127H559.75C586.12 657.127 607.49 646.547 607.49 633.487V608.677C607.53 621.737 586.12 632.346 559.75 632.346Z" fill="#BCBCBC"/>
<path d="M533.53 544.697V385.837C533.53 384.967 533.53 384.107 533.4 383.257C529.53 297.347 432.45 228.597 313.23 228.597C194.01 228.597 96.92 297.347 93.05 383.257C92.97 384.107 92.92 384.967 92.92 385.837V544.697H533.53Z" fill="#BCBCBC"/>
<path d="M533.53 544.696V395.696C533.527 394.891 533.484 394.087 533.4 393.286C529.53 312.746 432.4 248.286 313.22 248.286C194.04 248.286 96.92 312.776 93.05 393.346C92.9663 394.147 92.9229 394.951 92.92 395.756V544.756L533.53 544.696Z" fill="#3D4756"/>
<path d="M533.41 393.347C529.54 312.807 432.41 248.347 313.23 248.347C194.05 248.347 96.92 312.777 93.05 393.347C92.9663 394.147 92.9229 394.952 92.92 395.757V428.657C92.92 427.847 92.97 427.037 93.05 426.237C96.92 345.697 194.05 281.237 313.23 281.237C432.41 281.237 529.54 345.717 533.41 426.237C533.49 427.037 533.54 427.847 533.54 428.657V395.757C533.537 394.952 533.494 394.147 533.41 393.347Z" fill="#2D353F"/>
<path d="M206.01 375.247C206.01 379.449 204.764 383.558 202.429 387.052C200.094 390.547 196.775 393.271 192.892 394.879C189.009 396.487 184.736 396.908 180.614 396.088C176.492 395.268 172.706 393.244 169.734 390.273C166.762 387.301 164.738 383.514 163.918 379.392C163.098 375.27 163.519 370.997 165.128 367.115C166.736 363.232 169.46 359.913 172.954 357.578C176.449 355.243 180.557 353.997 184.76 353.997C190.396 353.997 195.801 356.235 199.786 360.221C203.771 364.206 206.01 369.611 206.01 375.247V375.247Z" fill="#69FF77"/>
<path d="M476.04 375.247C476.04 379.449 474.794 383.558 472.459 387.052C470.124 390.547 466.805 393.271 462.922 394.879C459.039 396.487 454.766 396.908 450.644 396.088C446.522 395.268 442.736 393.244 439.764 390.273C436.792 387.301 434.768 383.514 433.948 379.392C433.128 375.27 433.549 370.997 435.158 367.115C436.766 363.232 439.49 359.913 442.984 357.578C446.479 355.243 450.587 353.997 454.79 353.997C457.581 353.995 460.345 354.544 462.924 355.611C465.502 356.679 467.845 358.244 469.819 360.218C471.792 362.191 473.358 364.534 474.425 367.113C475.493 369.692 476.041 372.456 476.04 375.247Z" fill="#69FF77"/>
<path d="M384.71 449.196C384.05 449.175 383.392 449.285 382.775 449.519C382.158 449.753 381.593 450.107 381.113 450.561C380.633 451.015 380.248 451.559 379.98 452.162C379.712 452.766 379.565 453.416 379.55 454.076C379.55 454.376 378.64 476.906 364.32 488.726C350.63 500.016 325.81 503.796 313.76 503.726C302.51 504.216 276.9 499.976 263.21 488.726C248.89 476.906 247.99 454.376 247.98 454.076C247.961 453.417 247.812 452.767 247.542 452.165C247.272 451.562 246.886 451.019 246.406 450.566C245.926 450.113 245.361 449.758 244.744 449.523C244.127 449.289 243.47 449.177 242.81 449.196C242.15 449.215 241.5 449.364 240.898 449.634C240.296 449.905 239.752 450.291 239.299 450.771C238.846 451.251 238.492 451.816 238.257 452.432C238.022 453.049 237.911 453.707 237.93 454.366C237.93 455.476 238.93 481.696 256.82 496.486C275.11 511.576 298.7 513.866 311.37 513.866C326.5 513.866 352.42 511.576 370.71 496.486C388.63 481.696 389.57 455.486 389.6 454.366C389.623 453.705 389.514 453.045 389.279 452.426C389.045 451.807 388.69 451.24 388.235 450.76C387.78 450.279 387.235 449.893 386.629 449.624C386.024 449.356 385.372 449.211 384.71 449.196V449.196Z" fill="#69FF77"/>
</svg>
