<svg width="1865" height="1429" viewBox="0 0 1865 1429" fill="none" xmlns="http://www.w3.org/2000/svg">
<path d="M415.321 1281.15C415.321 1281.15 354.321 1316.71 372.561 1358.58C383.491 1383.77 410.161 1392.58 429.691 1395.64C432.605 1396.08 435.578 1395.92 438.43 1395.18C441.281 1394.43 443.951 1393.12 446.277 1391.31C448.603 1389.5 450.538 1387.24 451.962 1384.66C453.386 1382.08 454.27 1379.23 454.561 1376.3L458.081 1341.67L415.321 1281.15Z" fill="url(#paint0_linear_74_1031)"/>
<path d="M1147 930.09C1143.32 964.23 1168.09 1062.62 1202.23 1066.29L1483.52 1028.84L1496.86 905.22L1215.51 874.92C1207.39 874.04 1199.17 874.77 1191.33 877.067C1183.5 879.364 1176.19 883.183 1169.82 888.307C1163.46 893.431 1158.17 899.758 1154.25 906.927C1150.34 914.097 1147.87 921.968 1147 930.09V930.09Z" fill="url(#paint1_linear_74_1031)"/>
<path d="M1689.14 694.78C1676.32 684.403 1659.91 679.543 1643.51 681.269C1627.1 682.994 1612.06 691.163 1601.68 703.98L1423.61 923.91L1520.27 1002.16L1698.34 782.23C1708.72 769.413 1713.58 753 1711.85 736.6C1710.13 720.2 1701.96 705.157 1689.14 694.78Z" fill="url(#paint2_linear_74_1031)"/>
<path d="M1489.56 1052.52C1538.02 1040.91 1567.89 992.205 1556.27 943.745C1544.66 895.286 1495.96 865.418 1447.5 877.034C1399.04 888.65 1369.17 937.352 1380.78 985.812C1392.4 1034.27 1441.1 1064.14 1489.56 1052.52Z" fill="url(#paint3_linear_74_1031)"/>
<path d="M1341.7 670.91C1418.73 670.91 1481.17 583.162 1481.17 474.92C1481.17 366.678 1418.73 278.93 1341.7 278.93C1264.67 278.93 1202.23 366.678 1202.23 474.92C1202.23 583.162 1264.67 670.91 1341.7 670.91Z" fill="url(#paint4_linear_74_1031)"/>
<path d="M915.441 0H652.951C383.801 0 165.611 218.19 165.611 487.34C165.611 630.96 282.041 747.34 425.611 747.34H1142.69C1286.31 747.34 1402.69 630.91 1402.69 487.34C1402.78 218.19 1184.6 0 915.441 0Z" fill="url(#paint5_linear_74_1031)"/>
<path d="M896.151 1428.2H678.581C455.501 1428.2 274.651 1247.35 274.651 1024.27C274.651 905.27 371.151 808.72 490.191 808.72H1084.54C1203.54 808.72 1300.08 905.23 1300.08 1024.27C1300.08 1247.35 1119.23 1428.2 896.151 1428.2Z" fill="url(#paint6_linear_74_1031)"/>
<path d="M1153.71 642.28H654.711C587.091 642.28 531.611 590.45 531.611 526.51V428.51C531.611 364.57 587.091 314.51 654.711 316.67L1153.71 332.59C1214.1 334.51 1262.5 384.22 1262.5 443.59V534.7C1262.5 594.11 1214.1 642.28 1153.71 642.28Z" fill="url(#paint7_linear_74_1031)"/>
<path d="M814.621 495.78C814.621 498.02 814.511 501.86 814.311 501.86H650.861C650.41 498.743 650.179 495.599 650.171 492.45C650.171 449.08 687.451 414.92 733.061 416.19C778.261 417.47 814.621 453.1 814.621 495.78Z" fill="white"/>
<path d="M1151.86 501.839H998.391C998.391 501.839 998.321 500.479 998.321 499.509C998.321 457.589 1033.09 424.319 1075.67 425.509C1117.8 426.709 1151.68 460.839 1151.86 501.839Z" fill="white"/>
<g style="mix-blend-mode:soft-light" opacity="0.3">
<path d="M965.272 679.04C891.062 591.85 924.042 522.12 827.022 403.96C693.542 241.39 537.862 259.78 502.152 149.52C492.262 118.96 491.152 77.0301 517.642 19.0601C314.332 77.7001 165.642 265.15 165.642 487.34C165.642 630.96 282.062 747.34 425.642 747.34H1050.56C1013.15 726.99 985.802 703.15 965.272 679.04Z" fill="white"/>
</g>
<path d="M235.741 669.54C312.769 669.54 375.211 581.792 375.211 473.55C375.211 365.308 312.769 277.56 235.741 277.56C158.714 277.56 96.2715 365.308 96.2715 473.55C96.2715 581.792 158.714 669.54 235.741 669.54Z" fill="url(#paint8_linear_74_1031)"/>
<path d="M125.422 559.25C159.105 559.25 186.412 520.881 186.412 473.55C186.412 426.219 159.105 387.85 125.422 387.85C91.7378 387.85 64.4316 426.219 64.4316 473.55C64.4316 520.881 91.7378 559.25 125.422 559.25Z" fill="url(#paint9_linear_74_1031)"/>
<path style="mix-blend-mode:multiply" opacity="0.4" d="M949.731 1205.84C919.881 1065.65 589.731 1069.04 580.731 977.41C573.861 906.76 763.371 836.84 787.191 828.04C807.571 820.53 827.791 814.17 847.811 808.72H490.191C371.191 808.72 274.651 905.23 274.651 1024.27C274.651 1247.35 455.491 1428.2 678.581 1428.2H896.151C916.733 1428.21 937.285 1426.65 957.631 1423.55C938.701 1400.08 926.361 1374.41 923.371 1346.4C916.751 1284.3 961.291 1260.15 949.731 1205.84Z" fill="url(#paint10_linear_74_1031)"/>
<path d="M792.721 862.33C982.492 862.33 1136.33 843.705 1136.33 820.73C1136.33 797.755 982.492 779.13 792.721 779.13C602.951 779.13 449.111 797.755 449.111 820.73C449.111 843.705 602.951 862.33 792.721 862.33Z" fill="url(#paint11_linear_74_1031)"/>
<path d="M106.242 1034.91L319.002 905.26C326.604 900.735 335.023 897.751 343.778 896.479C352.534 895.208 361.454 895.673 370.029 897.849C378.605 900.024 386.668 903.868 393.758 909.16C400.848 914.451 406.826 921.088 411.352 928.69C415.877 936.292 418.861 944.711 420.132 953.467C421.404 962.222 420.939 971.142 418.763 979.718C416.587 988.293 412.744 996.356 407.452 1003.45C402.16 1010.54 395.524 1016.51 387.922 1021.04L172.092 1146.5L106.242 1034.91Z" fill="url(#paint12_linear_74_1031)"/>
<path d="M526.332 1202.14L535.392 1255.86C536.024 1259.67 535.777 1263.57 534.669 1267.27C533.56 1270.97 531.62 1274.37 528.997 1277.2C526.374 1280.03 523.137 1282.23 519.534 1283.62C515.931 1285.01 512.058 1285.56 508.212 1285.22C473.212 1282.35 420.302 1286.14 399.522 1330.22C394.119 1341.85 392.88 1354.99 396.012 1367.43L401.012 1387.68C401.012 1387.68 303.472 1355.55 349.572 1245.05C385.772 1158.28 472.572 1172.05 508.172 1182.05C512.792 1183.33 516.953 1185.9 520.169 1189.46C523.384 1193.02 525.522 1197.41 526.332 1202.14V1202.14Z" fill="url(#paint13_linear_74_1031)"/>
<path d="M149.862 1067.25L361.982 1197.96C369.467 1202.68 375.95 1208.83 381.059 1216.05C386.169 1223.27 389.806 1231.44 391.762 1240.06C393.718 1248.69 393.955 1257.63 392.46 1266.35C390.964 1275.07 387.766 1283.41 383.047 1290.9C378.328 1298.38 372.181 1304.86 364.956 1309.97C357.732 1315.08 349.572 1318.72 340.942 1320.67C332.312 1322.63 323.382 1322.87 314.66 1321.37C305.939 1319.88 297.597 1316.68 290.112 1311.96L80.3218 1176.59L149.862 1067.25Z" fill="url(#paint14_linear_74_1031)"/>
<path d="M191.407 1174.98C226.644 1139.74 226.644 1082.61 191.407 1047.38C156.17 1012.14 99.0393 1012.14 63.8023 1047.38C28.5652 1082.61 28.5652 1139.74 63.8022 1174.98C99.0392 1210.22 156.17 1210.22 191.407 1174.98Z" fill="url(#paint15_linear_74_1031)"/>
<path d="M1668.36 590.15L1607.47 546.33C1607.47 546.33 1586.89 609.33 1593.71 626.33C1600.53 643.33 1665.29 701.33 1665.29 701.33C1665.29 701.33 1659.95 652.4 1675.29 614.33C1677.01 610.106 1677.26 605.426 1676.01 601.042C1674.75 596.657 1672.06 592.822 1668.36 590.15V590.15Z" fill="url(#paint16_linear_74_1031)"/>
<path d="M1607.47 546.33C1608.77 546.325 1610.06 546.629 1611.22 547.216C1612.38 547.803 1613.38 548.657 1614.15 549.709C1614.92 550.76 1615.43 551.978 1615.63 553.262C1615.84 554.547 1615.73 555.863 1615.33 557.1C1606.18 585.1 1589.46 659.41 1661.88 675.75C1729.37 690.98 1757.72 653.52 1781.29 595.69C1782.11 593.699 1783.32 591.894 1784.86 590.388C1786.4 588.882 1788.23 587.705 1790.23 586.93C1792.24 586.155 1794.39 585.798 1796.54 585.88C1798.69 585.963 1800.8 586.483 1802.74 587.41L1855.36 612.41C1857.43 613.391 1859.26 614.808 1860.73 616.564C1862.19 618.321 1863.26 620.375 1863.86 622.584C1864.45 624.793 1864.56 627.106 1864.18 629.361C1863.79 631.617 1862.93 633.763 1861.63 635.65C1836.97 671.38 1767.74 753.29 1670.4 720.02C1551.52 679.39 1589.4 575.02 1599.93 551.2C1600.58 549.743 1601.64 548.507 1602.98 547.642C1604.32 546.777 1605.88 546.321 1607.47 546.33V546.33Z" fill="url(#paint17_linear_74_1031)"/>
<defs>
<linearGradient id="paint0_linear_74_1031" x1="369.171" y1="1338.52" x2="458.081" y2="1338.52" gradientUnits="userSpaceOnUse">
<stop stop-color="#444B8C"/>
<stop offset="1" stop-color="#26264F"/>
</linearGradient>
<linearGradient id="paint1_linear_74_1031" x1="1630.08" y1="782.05" x2="1221.01" y2="1019.51" gradientUnits="userSpaceOnUse">
<stop stop-color="#FCB148"/>
<stop offset="0.05" stop-color="#FDBA46"/>
<stop offset="0.14" stop-color="#FFC244"/>
<stop offset="0.32" stop-color="#FFC444"/>
<stop offset="0.48" stop-color="#FDB946"/>
<stop offset="0.78" stop-color="#F99C4D"/>
<stop offset="0.87" stop-color="#F8924F"/>
<stop offset="1" stop-color="#F8924F"/>
</linearGradient>
<linearGradient id="paint2_linear_74_1031" x1="1633.46" y1="808.63" x2="1248.12" y2="1032.31" gradientUnits="userSpaceOnUse">
<stop stop-color="#FCB148"/>
<stop offset="0.05" stop-color="#FDBA46"/>
<stop offset="0.14" stop-color="#FFC244"/>
<stop offset="0.32" stop-color="#FFC444"/>
<stop offset="0.48" stop-color="#FDB946"/>
<stop offset="0.78" stop-color="#F99C4D"/>
<stop offset="0.87" stop-color="#F8924F"/>
<stop offset="1" stop-color="#F8924F"/>
</linearGradient>
<linearGradient id="paint3_linear_74_1031" x1="1455.74" y1="846.504" x2="1490.48" y2="1169.29" gradientUnits="userSpaceOnUse">
<stop stop-color="#444B8C"/>
<stop offset="1" stop-color="#26264F"/>
</linearGradient>
<linearGradient id="paint4_linear_74_1031" x1="1202.23" y1="474.92" x2="1481.16" y2="474.92" gradientUnits="userSpaceOnUse">
<stop stop-color="#FFC444"/>
<stop offset="1" stop-color="#F36F56"/>
</linearGradient>
<linearGradient id="paint5_linear_74_1031" x1="165.611" y1="373.7" x2="1402.78" y2="373.7" gradientUnits="userSpaceOnUse">
<stop stop-color="#FCB148"/>
<stop offset="0.05" stop-color="#FDBA46"/>
<stop offset="0.14" stop-color="#FFC244"/>
<stop offset="0.32" stop-color="#FFC444"/>
<stop offset="0.48" stop-color="#FDB946"/>
<stop offset="0.78" stop-color="#F99C4D"/>
<stop offset="0.87" stop-color="#F8924F"/>
<stop offset="1" stop-color="#F8924F"/>
</linearGradient>
<linearGradient id="paint6_linear_74_1031" x1="1224.88" y1="568.68" x2="416.621" y2="1476.57" gradientUnits="userSpaceOnUse">
<stop stop-color="#FCB148"/>
<stop offset="0.05" stop-color="#FDBA46"/>
<stop offset="0.14" stop-color="#FFC244"/>
<stop offset="0.32" stop-color="#FFC444"/>
<stop offset="0.48" stop-color="#FDB946"/>
<stop offset="0.78" stop-color="#F99C4D"/>
<stop offset="0.87" stop-color="#F8924F"/>
<stop offset="1" stop-color="#F8924F"/>
</linearGradient>
<linearGradient id="paint7_linear_74_1031" x1="531.651" y1="479.42" x2="1262.5" y2="479.42" gradientUnits="userSpaceOnUse">
<stop stop-color="#444B8C"/>
<stop offset="1" stop-color="#26264F"/>
</linearGradient>
<linearGradient id="paint8_linear_74_1031" x1="96.2815" y1="473.55" x2="375.211" y2="473.55" gradientUnits="userSpaceOnUse">
<stop stop-color="#FFC444"/>
<stop offset="1" stop-color="#F36F56"/>
</linearGradient>
<linearGradient id="paint9_linear_74_1031" x1="64.4316" y1="473.55" x2="186.402" y2="473.55" gradientUnits="userSpaceOnUse">
<stop stop-color="#FFC444"/>
<stop offset="1" stop-color="#F36F56"/>
</linearGradient>
<linearGradient id="paint10_linear_74_1031" x1="274.651" y1="1118.46" x2="957.631" y2="1118.46" gradientUnits="userSpaceOnUse">
<stop stop-color="#FCB148"/>
<stop offset="0.05" stop-color="#FDBA46"/>
<stop offset="0.14" stop-color="#FFC244"/>
<stop offset="0.32" stop-color="#FFC444"/>
<stop offset="0.48" stop-color="#FDB946"/>
<stop offset="0.78" stop-color="#F99C4D"/>
<stop offset="0.87" stop-color="#F8924F"/>
<stop offset="1" stop-color="#F8924F"/>
</linearGradient>
<linearGradient id="paint11_linear_74_1031" x1="638.971" y1="2010.31" x2="737.771" y2="1245.86" gradientUnits="userSpaceOnUse">
<stop stop-color="#FCB148"/>
<stop offset="0.05" stop-color="#FDBA46"/>
<stop offset="0.14" stop-color="#FFC244"/>
<stop offset="0.32" stop-color="#FFC444"/>
<stop offset="0.4" stop-color="#FEC045"/>
<stop offset="0.71" stop-color="#FAA34B"/>
<stop offset="0.87" stop-color="#F8924F"/>
<stop offset="1" stop-color="#F8924F"/>
</linearGradient>
<linearGradient id="paint12_linear_74_1031" x1="115.314" y1="990.029" x2="405.056" y2="1049.24" gradientUnits="userSpaceOnUse">
<stop stop-color="#FCB148"/>
<stop offset="0.05" stop-color="#FDBA46"/>
<stop offset="0.14" stop-color="#FFC244"/>
<stop offset="0.32" stop-color="#FFC444"/>
<stop offset="0.48" stop-color="#FDB946"/>
<stop offset="0.78" stop-color="#F99C4D"/>
<stop offset="0.87" stop-color="#F8924F"/>
<stop offset="1" stop-color="#F8924F"/>
</linearGradient>
<linearGradient id="paint13_linear_74_1031" x1="377.865" y1="1193.45" x2="491.224" y2="1305.21" gradientUnits="userSpaceOnUse">
<stop stop-color="#444B8C"/>
<stop offset="1" stop-color="#26264F"/>
</linearGradient>
<linearGradient id="paint14_linear_74_1031" x1="207.591" y1="1036.87" x2="287.449" y2="1320.81" gradientUnits="userSpaceOnUse">
<stop stop-color="#FCB148"/>
<stop offset="0.05" stop-color="#FDBA46"/>
<stop offset="0.14" stop-color="#FFC244"/>
<stop offset="0.32" stop-color="#FFC444"/>
<stop offset="0.48" stop-color="#FDB946"/>
<stop offset="0.78" stop-color="#F99C4D"/>
<stop offset="0.87" stop-color="#F8924F"/>
<stop offset="1" stop-color="#F8924F"/>
</linearGradient>
<linearGradient id="paint15_linear_74_1031" x1="114.842" y1="992.821" x2="149.58" y2="1315.61" gradientUnits="userSpaceOnUse">
<stop stop-color="#444B8C"/>
<stop offset="1" stop-color="#26264F"/>
</linearGradient>
<linearGradient id="paint16_linear_74_1031" x1="1721.69" y1="574.14" x2="1594.93" y2="647.95" gradientUnits="userSpaceOnUse">
<stop stop-color="#444B8C"/>
<stop offset="1" stop-color="#26264F"/>
</linearGradient>
<linearGradient id="paint17_linear_74_1031" x1="1585.82" y1="637.09" x2="1864.41" y2="637.09" gradientUnits="userSpaceOnUse">
<stop stop-color="#444B8C"/>
<stop offset="1" stop-color="#26264F"/>
</linearGradient>
</defs>
</svg>
